<svg xmlns="http://www.w3.org/2000/svg" width="1240" height="1240"><path d="M413.407 264.516c-.348 1.384-.399 3.408-.113 4.499.285 1.091.11 2.235-.388 2.543-.498.308-.906 2.558-.906 5.001V281h-54.441c-35.215 0-54.659.353-55.059 1-.34.55-1.661 1-2.937 1-1.275 0-2.878.675-3.563 1.5s-2.09 1.5-3.122 1.5c-1.033 0-1.878.45-1.878 1s-.482 1-1.071 1c-.59 0-1.637.563-2.327 1.25-.691.688-2.865 2.661-4.832 4.385-3.901 3.418-8.77 11.346-8.77 14.278 0 1.013-.675 2.402-1.5 3.087-1.328 1.102-1.5 37.771-1.5 319s.172 317.898 1.5 319c.825.685 1.5 2.021 1.5 2.969 0 4.716 9.807 16.996 16.414 20.555 1.972 1.062 3.586 2.278 3.586 2.703 0 .425 1.26.773 2.8.773 1.54 0 3.362.563 4.049 1.25.964.964 13.871 1.302 56.45 1.477 30.361.124 56.463-.045 58.005-.377l2.804-.604-.197-149.623-.196-149.623 3.074-6.5c4.996-10.564 13.033-17.629 23.857-20.972 6.487-2.004 8.593-2.028 177.709-2.017 182.044.011 174.628-.173 183.793 4.565 8.887 4.594 15.578 12.748 19.018 23.176 1.745 5.289 1.834 12.708 1.834 153.296 0 137.9.113 147.781 1.693 148.388.932.357 25.885.518 55.451.357 41.352-.225 54.046-.581 55.007-1.543.687-.687 2.472-1.25 3.966-1.25 1.494 0 2.866-.338 3.05-.75.183-.413 2.191-1.958 4.462-3.434 6.491-4.22 15.371-16.192 15.371-20.724 0-1.016.675-2.407 1.5-3.092 1.327-1.101 1.5-34.571 1.5-290.198V368.849l-43.963-43.925L881.075 281H828v-4.5c0-2.475-.45-4.5-1-4.5s-1-2.25-1-5v-5H414.038l-.631 2.516m381.406 247.167c.721.289 1.584.253 1.916-.079.332-.332-.258-.568-1.312-.525-1.165.048-1.402.285-.604.604M478 750.5v9.5h143.941c79.168 0 144.09-.337 144.271-.75.182-.413.175-4.687-.014-9.5l-.345-8.75H478v9.5m-.329 56.163c-1.252 1.251-.747 17.031.579 18.099.833.672 40.745.796 119.75.373l118.5-.635v-18l-119.079-.254c-65.494-.14-119.381.048-119.75.417m-.041 60.859c-.939 2.447-.732 16.769.265 18.343.728 1.148 19.703 1.228 119.735.5l118.87-.865.289-8.766c.214-6.483-.046-8.872-1-9.17-.709-.222-54.443-.692-119.409-1.044-108.965-.59-118.169-.513-118.75 1.002" fill="undefined" fill-rule="evenodd"/></svg>