<?xml version="1.0" encoding="utf-8"?>
<!-- Generator: Adobe Illustrator 24.0.1, SVG Export Plug-In . SVG Version: 6.00 Build 0)  -->
<svg version="1.1" id="Layer_1" xmlns="http://www.w3.org/2000/svg" xmlns:xlink="http://www.w3.org/1999/xlink" x="0px" y="0px"
	 viewBox="0 0 1240 1240" enable-background="new 0 0 1240 1240" xml:space="preserve">
<g>
	<g>
		<path fill="#FEFEFD" d="M621,1241.9c-205.1,0-410.3,0-615.4,0.1c-3.7,0-4.6-0.8-4.6-4.6C1.1,827.1,1.1,416.9,1,6.6
			C1,2.8,1.8,2,5.6,2c410.3,0.1,820.5,0.1,1230.8,0c3.7,0,4.6,0.8,4.6,4.6c-0.1,410.3-0.1,820.5,0,1230.8c0,3.7-0.8,4.6-4.6,4.6
			C1031.3,1241.9,826.1,1241.9,621,1241.9z M621.2,3.6C451.8,7.1,304.8,65.1,184.7,185.3C64.9,305.3,3.8,451.7,3.6,621.2
			C3.4,791.1,64.2,938,184.3,1058.2c119.9,120.1,266.6,181,436.2,181.2c169.6,0.1,316.4-60.6,436.5-180.5
			c120.2-119.9,181.2-266.6,181.4-436.3c0.1-169.9-60.8-316.7-180.8-437C937.6,65.3,790.5,7.1,621.2,3.6z"/>
		<path fill="#F1CA4E" d="M621.2,3.6c169.4,3.6,316.4,61.7,436.4,182c120,120.3,181,267.1,180.8,437
			c-0.1,169.7-61.2,316.3-181.4,436.3c-120.1,119.9-266.9,180.7-436.5,180.5c-169.6-0.1-316.3-61.1-436.2-181.2
			C64.2,938,3.4,791.1,3.6,621.2c0.2-169.5,61.3-315.9,181.1-435.9C304.8,65.1,451.8,7.1,621.2,3.6z M414.9,284.8
			c-15.5,0-31,0.1-46.5,0.1c-17.8,0-35.7,0-53.5,0c-13.1,0-24,4.6-32.2,15c-7.4,7.7-9.1,17.2-9.1,27.4c0.1,202.5,0,404.9,0.1,607.4
			c0,5.6,0.3,11.1,2,16.7c5,16.3,18.9,26.9,32.7,27.2c36.3,0.9,72.6,0.3,109,0.2c2,0.1,4,0.2,6,0.2c133.3,0,266.5,0,399.8,0
			c1.8,0,3.7-0.1,5.5-0.2c0.5,0,0.9,0,1.4,0c34.7,0,69.4,0.5,104.1-0.1c8.3-0.1,16.3-4.1,21.6-11.4c0.9-0.7,1.9-1.4,2.6-2.2
			c7.3-8.3,9.8-18.3,9.8-29.1c0-186.8,0-373.5,0.1-560.3c0-3.2-1.1-5.3-3.2-7.4c-26.8-26.7-53.5-53.4-80.2-80.2
			c-2.4-2.5-5-3.3-8.4-3.3c-16.2,0.1-32.3-0.1-48.5-0.1c-0.4-0.5-0.7-1.1-1.1-1.6c0.1-3.8,0.2-7.7,0.2-11.5c0-6.6,0-6.6-6.6-6.6
			c-119.6,0-239.2,0-358.8,0c-2.2,0-4.3,0.1-6.5,0.1c-11.7,0-23.5,0-35.2-0.2c-3.8-0.1-4.9,1.6-4.8,5.1
			C415.2,274.9,415,279.9,414.9,284.8z"/>
		<path fill="#1B957E" d="M827.8,284.7c16.2,0.1,32.3,0.2,48.5,0.2c3.4,0,5.9,0.9,8.4,3.3c26.7,26.8,53.4,53.5,80.2,80.2
			c2.1,2.1,3.2,4.2,3.2,7.4C968,562.5,968.1,749.3,968,936c0,10.8-2.5,20.7-9.8,29.1c-0.7,0.8-1.7,1.5-2.6,2.2
			c-4.9-2.6-8.5-6.9-12.1-10.8c-12.7-13.7-25.9-26.8-39.5-39.6c-8.2-7.7-15.6-16.1-23.6-23.9c-5.2-5.1-10.2-10.6-15.6-15.5
			c-12.3-11.1-24-22.7-34.9-35.1c0,45.2,0,90.8,0,136.4c-0.5,0-0.9,0-1.4,0c0.1-47.6,0.1-95.2,0.2-142.9
			c0.1-48.6,0.2-97.2,0.1-145.8c0-10.1-3.1-19.3-10.7-26.4c-0.3-1-1-1.7-2-2c-5.1-6-11.6-9.3-19.3-10.3c-1-0.1-2-0.2-3-0.3
			c-2.6-1.5-5.5-0.9-8.3-0.9c-48.5,0-97,0-145.6,0c-2,0-4-0.2-6-0.3c0.2-2.7-1.8-4.2-3.4-5.8c-17.2-17.3-34.5-34.5-51.7-51.8
			c-10.1-10.1-20.5-20-30.8-29.9c-11-10.5-20.9-22.1-32.3-32.2c-0.8-0.7-2-1.6-1.4-2.9c0.5-1.2,1.8-1.4,3-1.4c1.3,0,2.7,0,4,0
			c89.6,0,179.2,0,268.8-0.1c8.5,0,16-3.2,22.4-9.1c6.6-6,10.2-13.6,13.6-21.6c1-2.3,0.4-3.8-1.4-5.2c0.2-1,0.5-2.1,0.7-3.1
			c0.1-2.3,0.2-4.6,0.3-7c1.6-2.1,0.9-4.5,0.9-6.7c0-60.4,0-120.8,0-181.2C827,289.6,826.8,287.1,827.8,284.7z"/>
		<path fill="#1A8470" d="M825,490.1c1.8,1.4,2.3,2.9,1.4,5.2c-3.4,7.9-7,15.6-13.6,21.6c-6.5,5.9-13.9,9.1-22.4,9.1
			c-89.6,0.1-179.2,0.1-268.8,0.1c-1.3,0-2.7,0-4,0c-1.2,0-2.5,0.2-3,1.4c-0.6,1.3,0.5,2.2,1.4,2.9c11.4,10.1,21.3,21.7,32.3,32.2
			c10.3,9.9,20.7,19.7,30.8,29.9c17.2,17.3,34.5,34.5,51.7,51.8c1.6,1.6,3.6,3.1,3.4,5.8c-4.5,0.1-9,0.3-13.5,0.3
			c-53.3,0-106.5,0-159.8,0c-2.6,0-5.3-0.6-7.8,0.9c-1.4-0.3-2.7-0.3-4,0.3c-1.7-1-3.1,0.8-4.7,0.6c-1.3-0.1-2.6-0.4-3.4,1
			c-1.4,0.9-2.8,1.7-4.2,2.6c-9.3,6.1-16.2,13.9-18.1,25.3c-0.7,1.3-0.7,2.7-0.4,4.1c-1.4,2.1-1,4.5-1,6.8c0,95.7,0.1,191.3,0.1,287
			c-36.3,0-72.7,0.7-109-0.2c-13.8-0.3-27.7-11-32.7-27.2c-1.7-5.6-2-11.1-2-16.7c0-202.5,0-404.9-0.1-607.4
			c0-10.3,1.7-19.7,9.1-27.4c2.9-0.3,4.5,1.8,6.2,3.6c37.5,37.5,75.1,75,112.5,112.7c4.8,4.9,11.5,8.6,12.4,16.6
			c0,0.1,0.6,0.2,0.9,0.4c0.1,13.5,0.1,27,0.3,40.4c0.1,5.1-0.3,10.7,1.4,15.3c7.6,20.4,21,28.8,40.2,28.9
			c109.5,0.5,219.1,0.2,328.6,0.2c3,0,5.9-0.3,8.5-2.1c2.1,0.3,4.1,0,6.1-0.8c1.3,0.1,2-0.8,2.5-1.8c5.3-0.7,8.7-4.3,12.4-7.6
			c1.5-0.3,1.9-1.3,2-2.6c2.1-1.7,4-3.6,4.3-6.5c1.1-0.5,1.9-1.2,1.7-2.5c1.4-1,1-2.6,1.1-3.9C824.3,490.1,824.7,490.1,825,490.1z"
			/>
		<path fill="#BBC6C9" d="M814.9,505.6c-3.7,3.3-7.2,6.9-12.4,7.6c-1.5-0.3-2.4,0.2-2.5,1.8c-2,0.8-4,1.1-6.1,0.8
			c-3.7-2.4-7.4,0.3-11.1,0.3c-22.1-0.2-44.3-0.3-66.5,0c-7.3,0.1-12.4-1.5-18.1-7.3c-31.6-32.6-64.1-64.3-96.3-96.3
			c-4.5-4.5-8.6-9.4-13.1-13.6c-13.4-12.6-26.3-25.7-39.3-38.7c-29.9-30-59.8-59.8-89.7-89.8c-1.7-1.7-4.8-2.1-4.9-5.3
			c2.2,0,4.3-0.1,6.5-0.1c119.6,0,239.2,0,358.8,0c6.6,0,6.6,0,6.6,6.6c0,3.8-0.1,7.7-0.2,11.5c-2.9,0.9-1.7,3.3-1.7,5.1
			c-0.1,62.3-0.1,124.5,0,186.8c0,1.7-0.7,3.7,1,5.2c-0.1,2.3-0.2,4.6-0.3,7c-1.7,0.4-3.3,0.8-1.7,3c-0.1,1.4,0.3,2.9-1.1,3.9
			c-1.5,0.2-1.9,1.1-1.7,2.5c-0.3,2.9-2.1,4.8-4.3,6.5C815.2,503.1,814.9,504.2,814.9,505.6z M776.4,326.1c-0.6-3-0.4-6.1-2-9
			c-4.4-8-12-10.5-20.1-10.6c-25.3-0.3-50.6-0.5-75.9,0.1c-11.2,0.3-21.6,4.4-22,19.5c-0.1,0.5-0.4,1-0.4,1.4
			c0,38.3-0.2,76.6,0,114.9c0.1,13.9,10,21,22,20.7c26.6-0.6,53.3-0.3,79.9-0.2c6.5,0,11.1-3.3,14.7-7.9c4.2-5.4,4-12.3,4-18.6
			c0.2-35.3,0.1-70.6,0.1-105.9C776.9,329,776.6,327.5,776.4,326.1z"/>
		<path fill="#B2BEC0" d="M455,265.1c0.1,3.1,3.2,3.6,4.9,5.3c29.8,30,59.8,59.9,89.7,89.8c13,13,25.8,26.1,39.3,38.7
			c4.6,4.3,8.7,9.2,13.1,13.6c32.1,32.1,64.6,63.8,96.3,96.3c5.7,5.8,10.8,7.4,18.1,7.3c22.1-0.3,44.3-0.2,66.5,0
			c3.7,0,7.4-2.7,11.1-0.3c-2.6,1.8-5.5,2.1-8.5,2.1c-109.5,0-219.1,0.2-328.6-0.2c-19.2-0.1-32.7-8.5-40.2-28.9
			c-1.7-4.6-1.3-10.2-1.4-15.3c-0.3-13.5-0.2-27-0.3-40.4c0.1-3.3,0.3-6.6,0.3-9.9c0-46.1-0.1-92.2-0.1-138.3
			c0.1-5,0.3-9.9,0.1-14.9c-0.1-3.5,1-5.1,4.8-5.1C431.5,265.1,443.3,265,455,265.1z"/>
		<path fill="#DBE3E5" d="M417.4,978.9c0-95.7-0.1-191.3-0.1-287c0-2.3-0.4-4.7,1-6.8c1.7,7.2,0.5,14.5,0.7,21.8
			c0.1,4.2,0.7,7.5,4.2,10.8c11.3,10.5,22.2,21.4,32.9,32.6c4.4,4.6,9.3,8.5,13.5,13.1c8.6,9.5,17.9,18.2,26.8,27.4
			c5.4,5.5,11.4,10.5,15.7,17.1c-6.3,0.1-12.6,0.2-19,0.2c-14.3,0-14.2,0-14.3,14.3c0,4.2,1.6,4.9,5.3,4.9c16-0.2,31.9-0.1,47.9-0.1
			c0.7,1,1.4,0.9,2,0c58,0,116,0,174.1,0c2.7,0,5.3,0.1,8,0.2c-1.1,3-3.7,1.7-5.6,1.7c-56.3,0.1-112.6,0-168.9,0.1
			c-1.7,0-4.2-1.1-4.9,1c-0.6,1.6,1.6,2.7,2.8,3.8c9.8,9.8,20.4,18.7,29.3,29.4c2.5,2.9,5.3,3.8,9.1,3.8c44.5-0.1,89-0.1,133.4-0.1
			c1.2,0,2.3,0,3.5,0c3.5-0.1,5.2,1.6,5.2,5.1c0,3.5,0,7,0,10.5c0,6.8-0.6,7.3-7.5,7.3c-36.5,0-73,0-109.4,0c-1.8,0-4-0.9-5.4,0.7
			c11.6,13.1,24,25.4,36.3,37.7c14.6,14.6,29.2,29,43.6,43.7c3.4,3.5,7.2,4.9,11.9,4.9c43-0.1,86-0.1,128.9-0.1c1.3,0,2.8-0.3,4,0.1
			c4.7,1.6,4.6-1.2,4.6-4.5c0-94,0-187.9,0-281.9c0-5.5-2.3-10.6-3.3-15.8c-0.9-4.4-5.2-6.4-5.9-10.7c0.1-0.1,0.3-0.2,0.4-0.4
			c7.6,7.2,10.7,16.4,10.7,26.4c0.1,48.6-0.1,97.2-0.1,145.8c-0.1,47.6-0.1,95.2-0.2,142.9c-1.8,0.1-3.7,0.2-5.5,0.2
			c-133.3,0-266.5,0-399.8,0C421.3,979.1,419.4,979,417.4,978.9z M478.9,880c0.1,9-1.1,8.1,8,7.9c8.6-0.1,17.1-0.6,25.7-0.8
			c12.1-0.4,24.2,1.6,36.4,0.9c2.6-0.2,5.3-0.8,7.9-0.7c11.7,0.6,23.4,0.8,35.2,0.6c37.5,0,75,0.1,112.4,0c16-0.1,13.2,3,13.6-14.2
			c0.1-3.4-1.1-4.8-4.6-4.8c-45.5,0.1-91,0.1-136.4,0.2c-1.7,0-3.3-0.1-5-0.1c-0.8-1.1-2-1-3.2-1c-28.5,0-57.1,0-85.6,0
			c-1.7,0-3.4,0.1-4.2,2c0,1.7,0,3.3-0.1,5C477.6,876.6,477.6,878.3,478.9,880z"/>
		<path fill="#1C957E" d="M414.9,284.8c0,46.1,0.1,92.2,0.1,138.3c0,3.3-0.2,6.6-0.3,9.9c-0.3-0.1-0.9-0.2-0.9-0.4
			c-0.9-7.9-7.5-11.7-12.4-16.6c-37.4-37.6-75-75.1-112.5-112.7c-1.8-1.8-3.3-3.8-6.2-3.6c8.2-10.4,19.1-15,32.2-15
			c17.8,0,35.7,0,53.5,0C383.9,284.9,399.4,284.8,414.9,284.8z"/>
		<path fill="#1A846F" d="M829.9,978.8c0-45.6,0-91.2,0-136.4c10.9,12.4,22.6,24,34.9,35.1c5.4,4.9,10.4,10.4,15.6,15.5
			c8,7.8,15.4,16.2,23.6,23.9c13.6,12.8,26.8,25.9,39.5,39.6c3.6,3.9,7.2,8.2,12.1,10.8c-5.3,7.3-13.3,11.3-21.6,11.4
			C899.3,979.3,864.6,978.9,829.9,978.8z"/>
		<path fill="#B2BEC0" d="M826,480c-1.7-1.5-1-3.4-1-5.2c0-62.3,0-124.5,0-186.8c0-1.8-1.1-4.2,1.7-5.1c0.4,0.5,0.7,1.1,1.1,1.6
			c-1,2.4-0.9,4.9-0.9,7.4c0,60.4,0,120.8,0,181.2C826.9,475.5,827.6,478,826,480z"/>
		<path fill="#F7F8F9" d="M449.1,651.5c1.3-0.6,2.6-0.6,4-0.3c1.6,1.4,3.5,0.8,5.3,0.8c110.1,0,220.2,0,330.3,0
			c1.8,0,3.7,0.6,5.3-0.8c1,0.1,2,0.2,3,0.3c0,0.5,0,1,0.1,1.5c-2.6,0.8-5.2,1-7.8,1c-110.7,0-221.5,0-332.2,0c-2.7,0-5.3-0.3-7.8-1
			C449.1,652.5,449.1,652,449.1,651.5z"/>
		<path fill="#DBE3E5" d="M793.9,651.2c-1.6,1.4-3.5,0.8-5.3,0.8c-110.1,0-220.2,0-330.3,0c-1.8,0-3.7,0.7-5.3-0.8
			c2.5-1.5,5.2-0.9,7.8-0.9c53.3,0,106.5,0,159.8,0c4.5,0,9-0.2,13.5-0.3c2,0.1,4,0.3,6,0.3c48.5,0,97,0,145.6,0
			C788.4,650.3,791.3,649.7,793.9,651.2z"/>
		<path fill="#DBE3E5" d="M796.9,653c0-0.5,0-1-0.1-1.5c7.7,1,14.3,4.2,19.3,10.3c-0.1,0.1-0.2,0.3-0.4,0.4
			C809.9,658.4,804.1,654.2,796.9,653z"/>
		<path fill="#B2BEC0" d="M824,490c-1.6-2.3,0.1-2.6,1.7-3c-0.2,1-0.5,2.1-0.7,3.1C824.7,490.1,824.3,490.1,824,490z"/>
		<path fill="#DBE3E5" d="M816.2,661.7c1,0.3,1.7,1,2,2c-0.1,0.1-0.3,0.2-0.4,0.4c-1.1-0.2-1.8-0.9-2-2
			C816,662,816.1,661.9,816.2,661.7z"/>
		<path fill="#ECF0F2" d="M815.8,662.1c0.2,1.1,0.8,1.8,2,2c0.7,4.2,5,6.3,5.9,10.7c1,5.3,3.3,10.3,3.3,15.8c0,94,0,187.9,0,281.9
			c0,3.3,0.1,6.1-4.6,4.5c-1.2-0.4-2.6-0.1-4-0.1c-43,0-86,0-128.9,0.1c-4.8,0-8.5-1.4-11.9-4.9c-14.4-14.7-29.1-29.2-43.6-43.7
			c-12.3-12.3-24.7-24.5-36.3-37.7c1.5-1.6,3.6-0.7,5.4-0.7c36.5-0.1,73,0,109.4,0c6.9,0,7.5-0.6,7.5-7.3c0-3.5,0-7,0-10.5
			c0-3.5-1.7-5.2-5.2-5.1c-1.2,0-2.3,0-3.5,0c-44.5,0-89,0-133.4,0.1c-3.8,0-6.7-0.9-9.1-3.8c-8.9-10.7-19.5-19.7-29.3-29.4
			c-1.1-1.1-3.4-2.2-2.8-3.8c0.8-2.1,3.2-1,4.9-1c56.3-0.1,112.6,0,168.9-0.1c1.9,0,4.5,1.3,5.6-1.7c0.4,0,0.7-0.1,1.1-0.1
			c2,0.1,2.9-0.9,2.9-3c-0.1-4.4-0.1-8.8,0-13.3c0-2.2-1-3-3-2.8c-66.5,0-133,0-199.4,0c-1.8,0-3.7-0.1-5.5-0.2
			c-4.3-6.6-10.3-11.5-15.7-17.1c-8.9-9.1-18.3-17.9-26.8-27.4c-4.2-4.7-9.2-8.6-13.5-13.1c-10.7-11.1-21.6-22.1-32.9-32.6
			c-3.5-3.3-4.1-6.5-4.2-10.8c-0.2-7.3,1-14.6-0.7-21.8c-0.3-1.4-0.3-2.8,0.4-4.1c2.1-0.6,2.7-2.4,3.2-4.1c1.4-5.1,4.1-9.2,7.7-13
			c5.4-5.8,12-9.1,19.5-10.9c2.6,0.8,5.2,1,7.8,1c110.7,0,221.5,0,332.2,0c2.7,0,5.3-0.2,7.8-1C804.1,654.2,809.9,658.4,815.8,662.1
			z M622.8,743c-15,0-30,0-45,0c-31.3,0-62.6,0.1-93.9-0.1c-4.2,0-6.2,1-5.8,5.6c0.3,3.1,0.1,6.3,0,9.5c-0.1,3.7,1.8,5.2,5.3,4.9
			c3.5-0.2,6.9-0.9,10.4-0.8c11.6,0.3,23.1,0.5,34.7,0.1c19.7-0.6,39.5-0.5,59.2,0.6c8,0.4,15.9-0.3,23.9-0.6
			c12.8-0.5,25.7,0,38.6,0.6c13.6,0.6,27.2-1.4,40.9-0.7c3.6,0.2,7.4,1.3,10.9,0.7c8.8-1.6,17.5,0.2,26.3-0.3
			c10.6-0.6,21.4-0.7,32.2,0.4c6.7,0.7,7.6-0.7,7.6-7.2c0-2,0-4,0-6c0-6.6,0-6.6-6.7-6.6C715.1,743,668.9,743,622.8,743z"/>
		<path fill="#DBE3E5" d="M449,653c-7.6,1.7-14.1,5.1-19.5,10.9c-3.6,3.8-6.3,8-7.7,13c-0.5,1.7-1,3.6-3.2,4.1
			c1.9-11.4,8.8-19.2,18.1-25.3c1.4-0.9,2.8-1.8,4.2-2.6c1.3,0.1,2.5,0,3.4-1c1.6,0.1,3-1.6,4.7-0.6C449.1,652,449.1,652.5,449,653z
			"/>
		<path fill="#B2BEC0" d="M814.9,505.6c0-1.4,0.2-2.5,2-2.6C816.8,504.3,816.4,505.4,814.9,505.6z"/>
		<path fill="#B2BEC0" d="M800,515c0.1-1.6,1.1-2.1,2.5-1.8C801.9,514.2,801.3,515.1,800,515z"/>
		<path fill="#B2BEC0" d="M821.2,496.5c-0.3-1.4,0.2-2.3,1.7-2.5C823,495.3,822.3,496,821.2,496.5z"/>
		<path fill="#1B957E" d="M444.4,652.2c-0.9,1-2.1,1.1-3.4,1C441.8,651.7,443.1,652,444.4,652.2z"/>
		<path fill="#1C957E" d="M776.4,326.1c0.2,1.5,0.5,2.9,0.5,4.4c0,35.3,0.1,70.6-0.1,105.9c0,6.3,0.2,13.2-4,18.6
			c-3.6,4.7-8.2,8-14.7,7.9c-26.6-0.1-53.3-0.5-79.9,0.2c-12,0.3-22-6.8-22-20.7c-0.3-38.3-0.1-76.6,0-114.9c0-0.5,0.3-1,0.4-1.4
			c1.3-0.1,2.8,0.3,3.5-1.2c3.8-7.7,11.3-8.5,18.3-8.6c25.8-0.4,51.6-0.3,77.4,0c4.9,0,9.5,1.8,13.9,4.4
			C772.2,322.1,772.2,326.9,776.4,326.1z"/>
		<path fill="#208773" d="M776.4,326.1c-4.3,0.8-4.2-3.9-6.8-5.5c-4.4-2.6-9-4.4-13.9-4.4c-25.8-0.2-51.6-0.3-77.4,0
			c-7,0.1-14.5,0.9-18.3,8.6c-0.8,1.5-2.3,1.1-3.5,1.2c0.4-15.2,10.8-19.3,22-19.5c25.3-0.6,50.6-0.4,75.9-0.1
			c8.1,0.1,15.6,2.6,20.1,10.6C776.1,320,775.9,323,776.4,326.1z"/>
		<path fill="#AEB9BE" d="M717.1,827c-0.4,0-0.7,0.1-1.1,0.1c-2.7-0.1-5.3-0.2-8-0.2c-58,0-116,0-174.1,0c-0.4-0.8-1.2-1-2-1
			c-3.9-3.7-7.7-7.4-11.5-11.1c-0.9-0.9-2.5-1.6-1.8-3.2c0.6-1.3,2.1-0.6,3.2-0.7c1.2-0.1,2.3,0,3.5,0c63.9,0,127.8,0,191.7,0
			C719,816.3,717.7,821.7,717.1,827z"/>
		<path fill="#B1BBC0" d="M577,869.1c45.5,0,91-0.1,136.4-0.2c3.5,0,4.7,1.4,4.6,4.8c-0.4,17.2,2.5,14.1-13.6,14.2
			c-37.5,0.1-75,0-112.4,0c0.4-2.5-1.5-3.8-2.9-5.4C585,878.1,579.8,874.7,577,869.1z"/>
		<path fill="#A4B1B5" d="M577,869.1c2.8,5.6,8.1,9,12.1,13.5c1.4,1.6,3.3,2.8,2.9,5.4c-11.7,0.2-23.4,0-35.2-0.6
			c-2.6-0.1-5.3,0.5-7.9,0.7c-12.1,0.7-24.2-1.2-36.4-0.9c-8.6,0.3-17.1,0.7-25.7,0.8c-9.1,0.1-7.8,1.1-8-7.9c1.6-1.7,1.6-3.4,0-5
			c0-1.7,0-3.3,0.1-5c29.3,0,58.6,0,87.8,0c1.7,0,3.7,0.7,5.2-1C573.7,869,575.3,869,577,869.1z"/>
		<path fill="#A4B1B5" d="M717.1,811c-63.9,0-127.8,0-191.7,0c-1.2,0-2.3-0.1-3.5,0c-1.1,0.1-2.6-0.5-3.2,0.7
			c-0.7,1.6,0.9,2.3,1.8,3.2c3.8,3.8,7.7,7.4,11.5,11.1c0,0.3,0,0.7,0,1c-16,0-31.9-0.1-47.9,0.1c-3.7,0-5.3-0.6-5.3-4.9
			c0.1-14.2-0.1-14.2,14.3-14.3c6.3,0,12.6-0.1,19-0.2c1.8,0.1,3.7,0.2,5.5,0.2c66.5,0,133,0,199.4,0C717,809,717.1,810,717.1,811z"
			/>
		<path fill="#B1BBC0" d="M572,869c-1.5,1.6-3.4,1-5.2,1c-29.3,0-58.6,0-87.8,0c0.8-1.9,2.4-2,4.2-2c28.5,0,57.1,0,85.6,0
			C570,868,571.2,867.9,572,869z"/>
		<path fill="#B1BBC0" d="M478.9,874.9c1.6,1.7,1.6,3.4,0,5C477.6,878.3,477.6,876.6,478.9,874.9z"/>
		<path fill="#BBC6C9" d="M532,827c0-0.3,0-0.7,0-1c0.8,0,1.6,0.2,2,1C533.4,827.9,532.7,828,532,827z"/>
		<path fill="#AEB9BE" d="M622.8,743c46.1,0,92.3,0,138.4,0c6.7,0,6.7,0,6.7,6.6c0,2,0,4,0,6c0,6.5-0.9,7.9-7.6,7.2
			c-10.8-1.1-21.6-1-32.2-0.4c-8.8,0.5-17.5-1.2-26.3,0.3c-3.5,0.6-7.2-0.5-10.9-0.7c-13.6-0.6-27.3,1.3-40.9,0.7
			c-12.9-0.6-25.7-1.1-38.6-0.6c-8,0.3-15.9,1-23.9,0.6c-19.7-1-39.5-1.2-59.2-0.6c-11.6,0.4-23.1,0.2-34.7-0.1
			c-3.5-0.1-6.9,0.5-10.4,0.8c-3.5,0.2-5.4-1.3-5.3-4.9c0.1-3.2,0.3-6.4,0-9.5c-0.4-4.5,1.6-5.6,5.8-5.6c31.3,0.1,62.6,0.1,93.9,0.1
			C592.8,743,607.8,743,622.8,743z"/>
		<path fill="#DBE3E5" d="M717.1,811c0-1-0.1-2-0.1-3c2-0.1,3,0.7,3,2.8c-0.1,4.4-0.1,8.8,0,13.3c0,2.1-0.8,3-2.9,3
			C717.7,821.7,719,816.3,717.1,811z"/>
	</g>
</g>
</svg>
